<svg xmlns="http://www.w3.org/2000/svg" viewBox="0 0 200 200" width="100%" height="100%">
  <circle cx="100" cy="105" r="70" fill="#ffd9a8" stroke="#2b2b40" stroke-width="5"/>
  <path d="M88 74 Q70 70 56 88" fill="none" stroke="#2b2b40" stroke-width="6" stroke-linecap="round"/>
  <path d="M112 74 Q130 70 144 88" fill="none" stroke="#2b2b40" stroke-width="6" stroke-linecap="round"/>
  <circle cx="76" cy="100" r="14" fill="#ffffff" stroke="#2b2b40" stroke-width="4"/>
  <circle cx="124" cy="100" r="14" fill="#ffffff" stroke="#2b2b40" stroke-width="4"/>
  <circle cx="76" cy="104" r="6.5" fill="#2b2b40"/>
  <circle cx="124" cy="104" r="6.5" fill="#2b2b40"/>
  <path d="M63 94 Q76 87 89 94" fill="none" stroke="#2b2b40" stroke-width="4" stroke-linecap="round"/>
  <path d="M111 94 Q124 87 137 94" fill="none" stroke="#2b2b40" stroke-width="4" stroke-linecap="round"/>
  <path d="M66 152 Q100 118 134 152" fill="none" stroke="#2b2b40" stroke-width="7" stroke-linecap="round"/>
  <path d="M70 112 C70 112 82 134 82 142 A12 12 0 0 1 58 142 C58 134 70 112 70 112 Z" fill="#6cc4ff" stroke="#2b2b40" stroke-width="4"/>
  <path d="M132 126 C132 126 143 146 143 154 A11 11 0 0 1 121 154 C121 146 132 126 132 126 Z" fill="#6cc4ff" stroke="#2b2b40" stroke-width="4"/>
  <path d="M62 160 C62 160 70 172 70 178 A8 8 0 0 1 54 178 C54 172 62 160 62 160 Z" fill="#6cc4ff" stroke="#2b2b40" stroke-width="3.5"/>
</svg>
