<svg xmlns="http://www.w3.org/2000/svg" viewBox="0 0 200 200" width="100%" height="100%">
  <circle cx="100" cy="105" r="70" fill="#ffd9a8" stroke="#2b2b40" stroke-width="5"/>
  <path d="M58 78 Q74 70 90 78" fill="none" stroke="#2b2b40" stroke-width="5" stroke-linecap="round"/>
  <path d="M108 64 Q124 56 140 64" fill="none" stroke="#2b2b40" stroke-width="5" stroke-linecap="round"/>
  <circle cx="76" cy="104" r="14" fill="#ffffff" stroke="#2b2b40" stroke-width="4"/>
  <circle cx="124" cy="104" r="14" fill="#ffffff" stroke="#2b2b40" stroke-width="4"/>
  <circle cx="76" cy="98" r="7" fill="#2b2b40"/>
  <circle cx="124" cy="98" r="7" fill="#2b2b40"/>
  <path d="M112 152 Q124 146 134 152" fill="none" stroke="#2b2b40" stroke-width="6" stroke-linecap="round"/>
  <circle cx="160" cy="40" r="22" fill="#ffffff" stroke="#2b2b40" stroke-width="4"/>
  <circle cx="182" cy="50" r="13" fill="#ffffff" stroke="#2b2b40" stroke-width="4"/>
  <circle cx="144" cy="54" r="11" fill="#ffffff" stroke="#2b2b40" stroke-width="4"/>
  <path d="M152 36 C152 30 156 27 160 27 C165 27 168 30 168 34 C168 40 160 41 160 46" fill="none" stroke="#2b2b40" stroke-width="5" stroke-linecap="round"/>
  <circle cx="160" cy="51" r="3" fill="#2b2b40"/>
</svg>
